<?xml version="1.0" standalone="no"?><!DOCTYPE svg PUBLIC "-//W3C//DTD SVG 1.1//EN" "http://www.w3.org/Graphics/SVG/1.1/DTD/svg11.dtd"><svg t="1629270074027" class="icon" viewBox="0 0 1026 1024" version="1.1" xmlns="http://www.w3.org/2000/svg" p-id="1839" xmlns:xlink="http://www.w3.org/1999/xlink" width="21.041015625" height="21"><defs><style type="text/css"></style></defs><path d="M1000.750324 46.32381C959.302705 14.628571 881.283657 0 747.188419 99.961905c-214.552381 160.914286-375.466667 465.67619-382.780952 480.304762l-9.752381 19.504762 39.009524 21.942857 9.752381-19.504762c0-2.438095 36.571429-68.266667 95.085714-156.038095l2.438095 0c92.647619 39.009524 175.542857 41.447619 243.809524 4.87619 87.771429-46.32381 124.342857-141.409524 136.533333-177.980952 73.142857-14.628571 121.904762-75.580952 136.533333-131.657143C1030.007467 97.52381 1025.131276 63.390476 1000.750324 46.32381z" p-id="1840"></path><path d="M688.674133 609.52381c-2.438095-24.380952-19.504762-68.266667-70.704762-68.266667-4.87619 0-7.314286 0-12.190476 0-19.504762 2.438095-36.571429 12.190476-46.32381 26.819048-19.504762 24.380952-14.628571 56.07619-14.628571 58.514286 7.314286 53.638095-7.314286 107.27619-39.009524 151.161905-34.133333 43.885714-80.457143 70.704762-136.533333 75.580952-7.314286 0-14.628571 2.438095-21.942857 2.438095 0 0 0 0 0 0-97.52381 0-180.419048-70.704762-197.485714-165.790476-9.752381-53.638095 2.438095-107.27619 34.133333-151.161905 31.695238-43.885714 80.457143-73.142857 131.657143-80.457143 2.438095 0 31.695238-2.438095 51.2-26.819048 9.752381-12.190476 19.504762-31.695238 14.628571-60.952381-4.87619-36.571429-34.133333-58.514286-75.580952-58.514286-4.87619 0-7.314286 0-9.752381 0-97.52381 14.628571-185.295238 68.266667-238.933333 151.161905-53.638095 82.895238-70.704762 182.857143-46.32381 280.380952C49.893181 894.780952 191.302705 1004.495238 344.902705 1004.495238c2.438095 0 7.314286 0 9.752381 0 99.961905-2.438095 192.609524-48.761905 256-124.342857C674.045562 804.571429 703.302705 707.047619 688.674133 609.52381z" p-id="1841"></path></svg>